<svg xmlns="http://www.w3.org/2000/svg" width="390" height="1415" viewBox="0 0 390 1415"><rect width="390" height="1415" fill="#f5f7f3"/>
<text x="20.00" y="40.48" font-family="Segoe UI, Arial, sans-serif" font-size="9" font-weight="700" fill="rgb(23, 46, 39)" text-anchor="start" letter-spacing="0.8">ÁREA DO JOGADOR</text>
<text x="269.03" y="41.05" font-family="Segoe UI, Arial, sans-serif" font-size="12" font-weight="400" fill="rgb(23, 46, 39)" text-anchor="start">Giovana · Jogadora</text>
<text x="20.00" y="102.23" font-family="Segoe UI, Arial, sans-serif" font-size="28" font-weight="700" fill="rgb(23, 46, 39)" text-anchor="start" letter-spacing="-1">Comprar ações</text>
<text x="20.00" y="136.39" font-family="Segoe UI, Arial, sans-serif" font-size="15" font-weight="400" fill="rgb(89, 107, 99)" text-anchor="start">Mercado / Aurora Energia / Compra simulada</text>
<rect x="20" y="163.59375" width="350" height="561.625" rx="17" fill="rgb(255, 255, 255)"/>
<rect x="40" y="183.59375" width="118.875" height="28" rx="14" fill="rgb(232, 241, 235)"/>
<text x="51.00" y="202.23" font-family="Segoe UI, Arial, sans-serif" font-size="12" font-weight="600" fill="rgb(23, 79, 61)" text-anchor="start">AURA3 · ENERGIA</text>
<text x="267.88" y="201.64" font-family="Segoe UI, Arial, sans-serif" font-size="12" font-weight="400" fill="rgb(89, 107, 99)" text-anchor="start">Empresa fictícia</text>
<text x="40.00" y="260.61" font-family="Segoe UI, Arial, sans-serif" font-size="29" font-weight="700" fill="rgb(23, 46, 39)" text-anchor="start" letter-spacing="-0.5">Aurora Energia</text>
<text x="40.00" y="330.36" font-family="Segoe UI, Arial, sans-serif" font-size="39" font-weight="750" fill="rgb(23, 46, 39)" text-anchor="start" letter-spacing="-2">M$ 42,00</text>
<text x="40.00" y="357.87" font-family="Segoe UI, Arial, sans-serif" font-size="16" font-weight="400" fill="rgb(23, 79, 61)" text-anchor="start">↑ +2,44%</text>
<text x="109.72" y="357.92" font-family="Segoe UI, Arial, sans-serif" font-size="12" font-weight="400" fill="rgb(89, 107, 99)" text-anchor="start">hoje</text>
<svg viewBox="0 0 680 168" preserveAspectRatio="none" role="img" aria-label="Evolução ilustrativa do patrimônio, de 10 mil a 12.480 moedas virtuais em sete dias" x="40" y="383.46875" width="310" height="168"><path d="M0 25H680M0 78H680M0 133H680" stroke="#e4eae5" fill="none"></path><path d="M0 145 L80 119 L150 128 L210 94 L280 104 L350 71 L420 80 L480 42 L550 57 L620 22 L680 8 L680 165 L0 165Z" fill="#e8f1eb"></path><path d="M0 145 L80 119 L150 128 L210 94 L280 104 L350 71 L420 80 L480 42 L550 57 L620 22 L680 8" fill="none" stroke="#174f3d" stroke-width="4" stroke-linejoin="round"></path></svg>
<text x="40.00" y="585.11" font-family="Segoe UI, Arial, sans-serif" font-size="12" font-weight="400" fill="rgb(89, 107, 99)" text-anchor="start">Empresa fictícia dedicada à geração de energia renovável</text>
<text x="40.00" y="604.30" font-family="Segoe UI, Arial, sans-serif" font-size="12" font-weight="400" fill="rgb(89, 107, 99)" text-anchor="start">e à distribuição de soluções sustentáveis.</text>
<rect x="40" y="637.84375" width="310" height="1" rx="0" fill="rgb(212, 223, 215)"/>
<text x="40.00" y="680.48" font-family="Segoe UI, Arial, sans-serif" font-size="12" font-weight="700" fill="rgb(23, 46, 39)" text-anchor="start">NA SUA CARTEIRA</text>
<text x="40.00" y="699.67" font-family="Segoe UI, Arial, sans-serif" font-size="12" font-weight="400" fill="rgb(23, 46, 39)" text-anchor="start">80 ações · Preço médio: M$ 40,00</text>
<rect x="20" y="749.21875" width="350" height="555.671875" rx="17" fill="rgb(255, 255, 255)"/>
<rect x="40" y="769.21875" width="310" height="53" rx="11" fill="rgb(245, 247, 243)"/>
<rect x="45" y="774.21875" width="147.5" height="43" rx="8" fill="rgb(23, 79, 61)"/>
<text x="87.00" y="801.81" font-family="Segoe UI, Arial, sans-serif" font-size="16" font-weight="600" fill="rgb(255, 255, 255)" text-anchor="start">Comprar</text>
<text x="245.67" y="801.81" font-family="Segoe UI, Arial, sans-serif" font-size="16" font-weight="600" fill="rgb(89, 107, 99)" text-anchor="start">Vender</text>
<text x="40.00" y="863.34" font-family="Segoe UI, Arial, sans-serif" font-size="21" font-weight="700" fill="rgb(23, 46, 39)" text-anchor="start" letter-spacing="-0.5">Nova compra</text>
<text x="40.00" y="904.53" font-family="Segoe UI, Arial, sans-serif" font-size="14" font-weight="600" fill="rgb(23, 46, 39)" text-anchor="start">Quantidade de ações</text>
<rect x="40" y="916.515625" width="310" height="48" rx="9" fill="rgb(255, 255, 255)"/>
<rect x="40.5" y="917.015625" width="309" height="47" rx="9" fill="none" stroke="rgb(155, 173, 161)" stroke-width="1"/>
<text x="55.00" y="946.37" font-family="Segoe UI, Arial, sans-serif" font-size="15" font-weight="400" fill="rgb(23, 46, 39)" text-anchor="start">10</text>
<text x="40.00" y="985.16" font-family="Segoe UI, Arial, sans-serif" font-size="12" font-weight="400" fill="rgb(89, 107, 99)" text-anchor="start">Informe uma quantidade inteira maior que zero.</text>
<text x="40.00" y="1023.53" font-family="Segoe UI, Arial, sans-serif" font-size="14" font-weight="400" fill="rgb(89, 107, 99)" text-anchor="start">Preço unitário</text>
<text x="288.67" y="1023.53" font-family="Segoe UI, Arial, sans-serif" font-size="14" font-weight="700" fill="rgb(23, 46, 39)" text-anchor="start">M$ 42,00</text>
<text x="40.00" y="1057.53" font-family="Segoe UI, Arial, sans-serif" font-size="14" font-weight="400" fill="rgb(89, 107, 99)" text-anchor="start">Saldo disponível</text>
<text x="274.69" y="1057.53" font-family="Segoe UI, Arial, sans-serif" font-size="14" font-weight="400" fill="rgb(23, 46, 39)" text-anchor="start">M$ 4.200,00</text>
<path d="M40,1076.515625H350" stroke="rgb(212, 223, 215)" stroke-width="1"/>
<text x="40.00" y="1118.85" font-family="Segoe UI, Arial, sans-serif" font-size="20" font-weight="700" fill="rgb(23, 46, 39)" text-anchor="start">Total da compra</text>
<text x="250.89" y="1118.85" font-family="Segoe UI, Arial, sans-serif" font-size="20" font-weight="700" fill="rgb(23, 46, 39)" text-anchor="start">M$ 420,00</text>
<text x="40.00" y="1154.53" font-family="Segoe UI, Arial, sans-serif" font-size="14" font-weight="400" fill="rgb(89, 107, 99)" text-anchor="start">Saldo após a operação</text>
<text x="268.78" y="1154.53" font-family="Segoe UI, Arial, sans-serif" font-size="14" font-weight="700" fill="rgb(23, 46, 39)" text-anchor="start">M$ 3.780,00</text>
<rect x="40" y="1178.515625" width="310" height="48" rx="10" fill="rgb(23, 79, 61)"/>
<text x="134.80" y="1208.03" font-family="Segoe UI, Arial, sans-serif" font-size="14" font-weight="650" fill="rgb(255, 255, 255)" text-anchor="start">Confirmar compra</text>
<text x="40.00" y="1260.16" font-family="Segoe UI, Arial, sans-serif" font-size="12" font-weight="400" fill="rgb(89, 107, 99)" text-anchor="start">Esta operação usa somente dinheiro virtual. Confira a</text>
<text x="40.00" y="1279.34" font-family="Segoe UI, Arial, sans-serif" font-size="12" font-weight="400" fill="rgb(89, 107, 99)" text-anchor="start">quantidade antes de confirmar.</text>
<rect x="0" y="1339" width="390" height="76" rx="0" fill="rgb(255, 255, 255)"/>
<path d="M0,1339H390" stroke="rgb(212, 223, 215)" stroke-width="1"/>
<rect x="14.0625" y="1353.5" width="46.984375" height="48" rx="9" fill="rgb(255, 255, 255)"/>
<text x="22.06" y="1382.14" font-family="Segoe UI, Arial, sans-serif" font-size="12" font-weight="650" fill="rgb(89, 107, 99)" text-anchor="start">Início</text>
<rect x="76.1875" y="1353.5" width="65.6875" height="48" rx="9" fill="rgb(232, 241, 235)"/>
<text x="84.19" y="1382.14" font-family="Segoe UI, Arial, sans-serif" font-size="12" font-weight="650" fill="rgb(23, 79, 61)" text-anchor="start">Mercado</text>
<rect x="157.015625" y="1353.5" width="59.109375" height="48" rx="9" fill="rgb(255, 255, 255)"/>
<text x="165.02" y="1382.14" font-family="Segoe UI, Arial, sans-serif" font-size="12" font-weight="650" fill="rgb(89, 107, 99)" text-anchor="start">carteira</text>
<rect x="231.25" y="1353.5" width="67.171875" height="48" rx="9" fill="rgb(255, 255, 255)"/>
<text x="239.25" y="1382.14" font-family="Segoe UI, Arial, sans-serif" font-size="12" font-weight="650" fill="rgb(89, 107, 99)" text-anchor="start">Histórico</text>
<rect x="313.5625" y="1353.5" width="62.359375" height="48" rx="9" fill="rgb(255, 255, 255)"/>
<text x="321.56" y="1382.14" font-family="Segoe UI, Arial, sans-serif" font-size="12" font-weight="650" fill="rgb(89, 107, 99)" text-anchor="start">Ranking</text>
</svg>